# AST/ASF file generated using VICON BodyLanguage
# -----------------------------------------------
:version 1.10
:name VICON
:units
  mass 1.0
  length 0.45
  angle deg
:documentation
   .ast/.asf automatically generated from VICON data using
   VICON BodyBuilder and BodyLanguage model FoxedUp or BRILLIANT.MOD
:root
   order TX TY TZ RX RY RZ
   axis XYZ
   position 0 0 0  
   orientation 0 0 0 
:bonedata
  begin
     id 1 
     name lhipjoint
     direction 0.528046 -0.759594 0.379717 
     length 2.39752 
     axis 0 0 0  XYZ
  end
  begin
     id 2 
     name lfemur
     direction 0.34202 -0.939693 0  
     length 7.31175  
     axis 0 0 20  XYZ
    dof rx ry rz
    limits (-160.0 20.0)
           (-70.0 70.0)
           (-60.0 70.0)
  end
  begin
     id 3 
     name ltibia
     direction 0.34202 -0.939693 0   
     length 7.52482   
     axis 0 0 20   XYZ
    dof rx
    limits (-10.0 170.0)
  end
  begin
     id 4 
     name lfoot
     direction 0.0675379 -0.185559 0.980309   
     length 2.00961   
     axis -90 7.62852e-016 20   XYZ
    dof rx rz
    limits (-45.0 90.0)
           (-70.0 20.0)
  end
  begin
     id 5 
     name ltoes
     direction 1.5352e-011 -4.22286e-011 1   
     length 1.01383   
     axis -90 7.62852e-016 20   XYZ
    dof rx
    limits (-90.0 20.0)
  end
  begin
     id 6 
     name rhipjoint
     direction -0.510274 -0.769251 0.384544   
     length 2.36742  
     axis 0 0 0  XYZ 
  end
  begin
     id 7 
     name rfemur
     direction -0.34202 -0.939693 0   
     length 7.45325   
     axis 0 0 -20   XYZ
    dof rx ry rz
    limits (-160.0 20.0)
           (-70.0 70.0)
           (-70.0 60.0)
  end
  begin
     id 8 
     name rtibia
     direction -0.34202 -0.939693 0   
     length 7.49587   
     axis 0 0 -20   XYZ
    dof rx
    limits (-10.0 170.0)
 end
 begin
     id 9 
     name rfoot
     direction -0.106475 -0.292536 0.950308   
     length 2.20898  
     axis -90 -7.62852e-016 -20   XYZ
    dof rx rz
    limits (-45.0 90.0)
           (-20.0 70.0)
  end
  begin
     id 10 
     name rtoes
     direction -1.53597e-011 -4.22023e-011 1   
     length 1.10065   
     axis -90 -7.62852e-016 -20   XYZ
    dof rx
    limits (-90.0 20.0)
  end
  begin
     id 11 
     name lowerback
     direction 0.0260024 0.998026 -0.0571652   
     length 2.11214   
     axis 0 0 0   XYZ
    dof rx ry rz
    limits (-20.0 45.0)
           (-30.0 30.0)
           (-30.0 30.0)
  end
  begin
     id 12 
     name upperback
     direction 0.0216202 0.999542 -0.0211766   
     length 2.11689   
     axis 0 0 0   XYZ
    dof rx ry rz
    limits (-20.0 45.0)
           (-30.0 30.0)
           (-30.0 30.0)
  end
  begin
     id 13 
     name thorax
     direction 0.00883312 0.999944 0.00589057   
     length 2.11821   
     axis 0 0 0   XYZ
    dof rx ry rz
    limits (-20.0 45.0)
           (-30.0 30.0)
           (-30.0 30.0)
  end
  begin
     id 14 
     name lowerneck
     direction -0.059386 0.994433 0.0870401   
     length 1.81176   
     axis 0 0 0   XYZ
    dof rx ry rz
    limits (-20.0 45.0)
           (-30.0 30.0)
           (-30.0 30.0)
  end
  begin
     id 15 
     name upperneck
     direction 0.0506457 0.97328 -0.223967   
     length 1.82382   
     axis 0 0 0   XYZ
    dof rx ry rz
    limits (-20.0 45.0)
           (-30.0 30.0)
           (-30.0 30.0)
  end
  begin
     id 16
     name head
     direction 0.0205902 0.996147 -0.0852487  
     length 1.84805  
     axis 0 0 0   XYZ
    dof rx ry rz
    limits (-20.0 45.0)
           (-30.0 30.0)
           (-30.0 30.0)
  end
  begin
     id 17 
     name lclavicle
     direction 0.949493 0.303881 -0.0782325  
     length 3.60584  
     axis 0 0 0   XYZ
    dof ry rz
    limits (-20.0 10.0)
           (0.0 20.0)
  end
  begin
     id 18 
     name lhumerus
     direction 1 -4.48965e-011 1.48782e-027   
     length 4.95681   
     axis 180 -30 -90   XYZ
    dof rx ry rz
    limits (-60.0 90.0)
           (-90.0 90.0)
           (-90.0 90.0)
  end
  begin
     id 19
     name lradius
     direction 1 -4.48952e-011 2.06528e-027   
     length 3.40915   
     axis 180 -30 -90   XYZ
    dof rx
    limits (-10.0 170.0)
  end
  begin
     id 20
     name lwrist
     direction 1 -4.48964e-011 1.28021e-027   
     length 1.70457   
     axis -1.61767e-015 90 90   XYZ
    dof ry
    limits (-180.0 0.0)
 end
  begin
     id 21 
     name lhand
     direction 1 -4.49094e-011 2.54887e-027   
     length 0.616403   
     axis -1.63363e-015 90 90   XYZ
    dof rx rz
    limits (-90.0 90.0)
           (-45.0 45.0)
  end
  begin
     id 22 
     name lfingers
     direction 1 -4.49002e-011 5.11407e-027   
     length 0.49696   
     axis -3.26723e-015 90 90   XYZ
    dof rx
    limits (0.0 90.0)
  end
  begin
     id 23
     name lthumb
     direction 0.707107 -6.34998e-011 0.707107   
     length 0.713539   
     axis -90 45 -2.25915e-014   XYZ
    dof rx rz
    limits (-45.0 45.0)
           (-45.0 45.0)
  end
  begin
     id 24 
     name rclavicle
     direction -0.937751 0.334612 -0.0930482   
     length 3.46287  
     axis 0 0 0   XYZ 
    dof ry rz
    limits (-10.0 20.0)
           (-20.0 0.0)
  end
  begin
     id 25 
     name rhumerus
     direction -1 -4.48962e-011 3.59972e-027  
     length 5.352   
     axis 180 30 90   XYZ
    dof rx ry rz
    limits (-90.0 60.0)
           (-90.0 90.0)
           (-90.0 90.0)
  end
  begin
     id 26 
     name rradius
     direction -1 -4.48987e-011 -3.76925e-027   
     length 3.43721   
     axis 180 30 90   XYZ
    dof rx
    limits (-10.0 170.0)
  end
  begin
     id 27 
     name rwrist
     direction -1 -4.48943e-011 1.28112e-027   
     length 1.7186   
     axis -1.61767e-015 -90 -90   XYZ
    dof ry
    limits (-180.0 0.0)
  end
  begin
     id 28
     name rhand
     direction -1 -4.49027e-011 2.55483e-027   
     length 0.72009   
     axis -1.63363e-015 -90 -90   XYZ
    dof rx rz
    limits (-90.0 90.0)
           (-45.0 45.0)
  end
  begin
     id 29
     name rfingers
     direction -1 -4.48827e-011 5.14506e-027   
     length 0.580555   
     axis -3.26723e-015 -90 -90   XYZ
    dof rx
    limits (0.0 90.0)
  end
  begin
     id 30
     name rthumb
     direction -0.707107 -6.34936e-011 0.707107   
     length 0.833564   
     axis -90 -45 2.25915e-014   XYZ
    dof rx rz
    limits (-45.0 45.0)
           (-45.0 45.0)
  end
:hierarchy
  begin
    root lhipjoint rhipjoint lowerback
    lhipjoint lfemur
    lfemur ltibia
    ltibia lfoot
    lfoot ltoes
    rhipjoint rfemur
    rfemur rtibia
    rtibia rfoot
    rfoot rtoes
    lowerback upperback
    upperback thorax
    thorax lowerneck lclavicle rclavicle
    lowerneck upperneck
    upperneck head
    lclavicle lhumerus
    lhumerus lradius
    lradius lwrist
    lwrist lhand lthumb
    lhand lfingers
    rclavicle rhumerus
    rhumerus rradius
    rradius rwrist
    rwrist rhand rthumb
    rhand rfingers
  end

#!OML:ASF H:\Terrain\Patient Classification 1\Terrain2\Thursday\justin.ASF
:FULLY-SPECIFIED
:DEGREES
583
root 16.1154 21.0376 -0.630999 -6.67731 85.9602 -9.04474
lowerback 8.58723 1.05708 -2.06016
upperback 1.47625 1.29817 1.16486
thorax -3.35557 0.688959 2.21705
lowerneck -13.0472 -1.89798 -8.91914
upperneck 40.5985 0.324912 4.14288
head 16.9849 -0.049993 3.73371
rclavicle -4.96962e-016 8.34896e-015
rhumerus -27.0252 1.53615 -83.5169
rradius 48.8863
rwrist -16.4079
rhand -22.035 15.3406
rfingers 7.12502
rthumb 4.37497 -14.5942
lclavicle -4.96962e-016 8.34896e-015
lhumerus -35.056 -1.50248 83.3226
lradius 46.6391
lwrist 10.0597
lhand -17.8766 19.3293
lfingers 7.12502
lthumb 8.38941 49.1426
rfemur -18.8758 -4.79364 19.1414
rtibia 62.8942
rfoot -19.1365 -2.06755
rtoes 2.32399
lfemur -12.6233 2.34198 -22.8406
ltibia 21.8332
lfoot -7.01183 -8.21769
ltoes 25.3355
584
root 16.1615 21.0304 -0.634907 -2.49107 86.0347 -4.91775
lowerback 8.51746 1.01941 -2.30506
upperback 1.40946 1.22041 1.05198
thorax -3.38427 0.652579 2.2474
lowerneck -12.9695 -1.87687 -8.62776
upperneck 40.5767 0.355912 3.8951
head 16.9493 -0.0249753 3.57057
rclavicle 1.4884e-014 -1.11319e-014
rhumerus -27.0966 1.64637 -83.5254
rradius 49.1745
rwrist -16.7174
rhand -21.8286 15.8944
rfingers 7.12502
rthumb 4.57424 -14.0362
lclavicle 1.4884e-014 -1.11319e-014
lhumerus -34.9923 -1.64837 83.1796
lradius 46.86
lwrist 10.0737
lhand -18.8639 19.9367
lfingers 7.12502
lthumb 7.43649 49.786
rfemur -19.3257 -4.41221 18.7617
rtibia 62.446
rfoot -19.6646 -0.991132
rtoes 6.29111
lfemur -12.6337 2.58649 -23.1734
ltibia 22.0295
lfoot -8.04182 -8.63885
ltoes 27.0895
585
root 16.2061 21.0169 -0.640699 -3.40731 86.0407 -5.85706
lowerback 8.50998 0.997704 -2.29055
upperback 1.39602 1.19653 1.14529
thorax -3.39442 0.641341 2.33886
lowerneck -12.9577 -1.85883 -8.37273
upperneck 40.4498 0.431314 3.52784
head 16.8713 -0.00463275 3.36245
rclavicle -1.14301e-014 -1.39149e-015
rhumerus -27.0092 1.55971 -83.3607
rradius 49.2121
rwrist -16.6093
rhand -21.6797 16.0642
rfingers 7.12502
rthumb 4.71803 -13.8632
lclavicle -1.14301e-014 -1.39149e-015
lhumerus -34.8098 -1.58344 83.2207
lradius 46.9494
lwrist 10.0874
lhand -19.5417 20.199
lfingers 7.12502
lthumb 6.7822 50.0704
rfemur -19.8593 -4.23004 18.9292
rtibia 61.8863
rfoot -20.2482 -0.975727
rtoes 6.88016
lfemur -12.6102 2.94888 -23.1279
ltibia 22.2399
lfoot -8.63273 -9.20213
ltoes 24.4795
586
root 16.2503 21.0022 -0.638967 -5.61785 86.0631 -8.10923
lowerback 8.45798 0.897257 -2.45743
upperback 1.3846 1.0599 1.4188
thorax -3.37746 0.577095 2.73354
lowerneck -13.0641 -1.78226 -8.3795
upperneck 40.4314 0.635508 3.31505
head 16.8742 0.0463115 3.30176
rclavicle 1.06847e-015 -1.59028e-015
rhumerus -26.8242 1.55916 -83.1204
rradius 49.109
rwrist -15.9669
rhand -21.7094 15.5502
rfingers 7.12502
rthumb 4.68936 -14.3779
lclavicle 1.06847e-015 -1.59028e-015
lhumerus -34.6418 -1.18662 83.3222
lradius 46.8973
lwrist 10.4277
lhand -19.6586 19.7732
lfingers 7.12502
lthumb 6.66944 49.6482
rfemur -20.5043 -4.27701 19.3776
rtibia 61.1754
rfoot -20.751 -2.0234
rtoes 3.34697
lfemur -12.6367 3.45969 -22.9769
ltibia 22.5171
lfoot -8.41079 -9.78159
ltoes 23.2117
587
root 16.2959 20.9892 -0.639247 -3.78651 86.2524 -6.26605
lowerback 8.42575 0.762807 -2.67701
upperback 1.37995 0.86379 1.46856
thorax -3.35513 0.482144 2.93207
lowerneck -13.1906 -1.7755 -8.68026
upperneck 40.5701 0.671083 3.54244
head 16.9802 0.0414882 3.47459
rclavicle 7.45443e-015 1.31198e-014
rhumerus -26.7162 1.58492 -83.0029
rradius 49.0779
rwrist -15.622
rhand -21.6851 15.232
rfingers 7.12502
rthumb 4.71284 -14.6956
lclavicle 7.45443e-015 1.31198e-014
lhumerus -34.4929 -0.719591 83.3003
lradius 46.8099
lwrist 10.4423
lhand -19.626 19.5409
lfingers 7.12502
lthumb 6.70083 49.4149
rfemur -20.9162 -4.39269 19.3478
rtibia 60.2932
rfoot -21.3789 -1.99716
rtoes 0.318531
lfemur -12.6447 3.65663 -23.1469
ltibia 22.8931
lfoot -8.33113 -10.124
ltoes 24.3027
588
root 16.3418 20.9825 -0.642925 -1.3646 86.4299 -3.84358
lowerback 8.38728 0.701408 -2.67941
upperback 1.39206 0.77973 1.39055
thorax -3.31405 0.439095 2.86204
lowerneck -13.2397 -1.8183 -8.87748
upperneck 40.6231 0.616302 3.69546
head 17.0277 0.00795546 3.57439
rclavicle 1.14301e-015 0
rhumerus -26.6492 1.42701 -82.8609
rradius 49.064
rwrist -15.6085
rhand -21.5161 15.4138
rfingers 7.12502
rthumb 4.876 -14.5101
lclavicle 1.14301e-015 0
lhumerus -34.311 -0.389182 83.2453
lradius 46.7652
lwrist 10.1267
lhand -19.5344 19.528
lfingers 7.12502
lthumb 6.78925 49.3991
rfemur -21.1965 -4.50201 19.162
rtibia 59.2201
rfoot -21.9863 -1.07505
rtoes -1.03314
lfemur -12.6843 3.57895 -23.3143
ltibia 23.3145
lfoot -8.50543 -10.4265
ltoes 23.5147
589
root 16.387 20.9727 -0.641398 -0.817625 86.4731 -3.40682
lowerback 8.2802 0.642021 -2.69322
upperback 1.36924 0.701297 1.39665
thorax -3.27282 0.399581 2.88554
lowerneck -13.3323 -1.76787 -8.79214
upperneck 40.6686 0.756376 3.50644
head 17.0666 0.0504712 3.50053
rclavicle 3.37934e-015 1.55052e-014
rhumerus -26.5469 1.28083 -82.7733
rradius 48.8978
rwrist -15.4766
rhand -21.4631 15.6986
rfingers 7.12502
rthumb 4.92722 -14.2241
lclavicle 3.37934e-015 1.55052e-014
lhumerus -34.0375 -0.389474 83.1111
lradius 46.64
lwrist 10.1485
lhand -19.2089 19.6579
lfingers 7.12502
lthumb 7.10346 49.5187
rfemur -21.6334 -4.53159 19.2015
rtibia 58.0006
rfoot -22.383 -0.619883
rtoes -1.95593
lfemur -12.8862 3.77323 -23.3491
ltibia 23.733
lfoot -8.82151 -10.7845
ltoes 20.2105
590
root 16.4303 20.9498 -0.640975 -2.90583 86.4547 -5.56147
lowerback 8.23508 0.565979 -2.60674
upperback 1.34527 0.612095 1.48995
thorax -3.26643 0.354946 2.94378
lowerneck -13.4318 -1.72468 -8.77332
upperneck 40.7288 0.888277 3.36258
head 17.1171 0.0845026 3.45867
rclavicle 7.45443e-015 5.76476e-015
rhumerus -26.466 1.0731 -82.7486
rradius 48.5799
rwrist -15.3076
rhand -21.6284 15.7718
rfingers 7.12502
rthumb 4.76763 -14.1546
lclavicle 7.45443e-015 5.76476e-015
lhumerus -33.7314 -0.231409 83.0102
lradius 46.3802
lwrist 10.187
lhand -19.4724 19.8313
lfingers 7.12502
lthumb 6.84917 49.7005
rfemur -21.9832 -4.40009 19.418
rtibia 56.6925
rfoot -22.7299 -0.225386
rtoes -3.06653
lfemur -13.0558 4.27031 -23.2745
ltibia 24.1674
lfoot -9.39943 -11.0553
ltoes 17.3963
591
root 16.4724 20.9302 -0.642855 -2.8657 86.5678 -5.50698
lowerback 8.25178 0.531833 -2.67329
upperback 1.32807 0.565994 1.62743
thorax -3.29232 0.334366 3.12962
lowerneck -13.2784 -1.79504 -8.96231
upperneck 40.621 0.844555 3.29083
head 17.0263 0.03124 3.44397
rclavicle -1.54058e-015 3.18055e-015
rhumerus -26.447 0.632919 -82.4469
rradius 48.1942
rwrist -15.0338
rhand -21.428 15.7825
rfingers 7.12502
rthumb 4.96105 -14.1394
lclavicle -1.54058e-015 3.18055e-015
lhumerus -33.5154 0.0907726 83.1925
lradius 46.0797
lwrist 10.0438
lhand -19.4281 19.8766
lfingers 7.12502
lthumb 6.89189 49.7444
rfemur -22.0243 -4.26516 19.3852
rtibia 55.3556
rfoot -23.0216 0.683626
rtoes -3.17496
lfemur -13.0899 4.31323 -23.297
ltibia 24.6722
lfoot -9.59303 -11.1916
ltoes 19.9283
